<svg width="71" height="86" viewBox="0 0 71 86" fill="none" xmlns="http://www.w3.org/2000/svg">
<rect opacity="0.6" x="0.270996" width="69.9704" height="67" rx="33.5" fill="#FFAF0F"/>
<path d="M60.9375 42.0069V33.2C60.9375 31.9831 59.9544 31 58.7375 31H12.2625C11.0457 31 10.0625 31.9831 10.0625 33.2V42.0069C8.91442 42.0756 8.00004 43.0312 8.00004 44.2V53.2544C7.99564 54.9184 8.33258 56.5657 8.99004 58.0944C9.28567 58.7956 9.65004 59.4556 10.0625 60.0813V83.8C10.0625 85.01 11.0457 86 12.2625 86H58.7375C59.9544 86 60.9375 85.0169 60.9375 83.8V60.0813C61.3565 59.454 61.7156 58.7888 62.01 58.0944C62.6631 56.5613 63 54.9319 63 53.2544V44.2C63 43.0312 62.0856 42.0756 60.9375 42.0069ZM15.0125 35.95H55.9875V42H15.0125V35.95ZM39.9 81.0569H31.1V73.9H39.9V81.0569ZM55.9875 81.0569H44.3V71.7C44.3 70.4831 43.3169 69.5 42.1 69.5H28.9C27.6832 69.5 26.7 70.4831 26.7 71.7V81.0569H15.0125V64.4056C15.2119 64.5019 15.4182 64.5981 15.6313 64.6806C17.1644 65.3269 18.7938 65.65 20.4713 65.65C22.1488 65.65 23.7713 65.3269 25.3113 64.6806C26.26 64.2819 27.1538 63.7731 27.9719 63.1613C27.9857 63.1544 27.9994 63.1544 28.0132 63.1613C28.8338 63.7757 29.7275 64.2861 30.6738 64.6806C32.2069 65.3269 33.8363 65.65 35.5138 65.65C37.1913 65.65 38.8138 65.3269 40.3538 64.6806C41.3025 64.2819 42.1963 63.7731 43.0144 63.1613C43.0281 63.1544 43.0419 63.1544 43.0556 63.1613C43.8763 63.7757 44.77 64.2861 45.7163 64.6806C47.2494 65.3269 48.8788 65.65 50.5563 65.65C52.2338 65.65 53.8563 65.3269 55.3963 64.6806C55.6025 64.5913 55.8088 64.5019 56.015 64.4056V81.0569H55.9875ZM58.05 53.2544C58.05 57.3656 54.6813 60.7 50.5356 60.7C47.7306 60.7 45.2831 59.1806 43.9906 56.9256C43.7913 56.5819 43.4338 56.3687 43.035 56.3687H42.9938C42.6019 56.3687 42.2375 56.5819 42.0381 56.9256C41.3786 58.0759 40.4262 59.0311 39.2778 59.694C38.1294 60.357 36.826 60.7041 35.5 60.7C32.7019 60.7 30.2613 59.1875 28.9688 56.9394C28.7625 56.5887 28.3913 56.3687 27.9857 56.3687C27.58 56.3687 27.2019 56.5887 27.0025 56.9394C26.3391 58.0853 25.3855 59.0362 24.2377 59.6964C23.0899 60.3565 21.7885 60.7027 20.4644 60.7C16.3188 60.7 12.95 57.3656 12.95 53.2544V46.9844C12.95 46.9637 12.9638 46.95 12.9844 46.95H58.0156C58.0363 46.95 58.05 46.9637 58.05 46.9844V53.2544Z" fill="#F95C19"/>
</svg>
