<svg width="71" height="86" viewBox="0 0 71 86" fill="none" xmlns="http://www.w3.org/2000/svg">
<rect opacity="0.6" x="0.492676" width="69.9704" height="67" rx="33.5" fill="#FFAF0F"/>
<path d="M47 39.25V36.5C47 35.0413 46.4205 33.6424 45.3891 32.6109C44.3576 31.5795 42.9587 31 41.5 31H30.5C29.0413 31 27.6424 31.5795 26.6109 32.6109C25.5795 33.6424 25 35.0413 25 36.5V39.25C22.0826 39.25 19.2847 40.4089 17.2218 42.4718C15.1589 44.5347 14 47.3326 14 50.25V80.5C14 81.9587 14.5795 83.3576 15.6109 84.3891C16.6424 85.4205 18.0413 86 19.5 86H52.5C53.9587 86 55.3576 85.4205 56.3891 84.3891C57.4205 83.3576 58 81.9587 58 80.5V50.25C58 47.3326 56.8411 44.5347 54.7782 42.4718C52.7153 40.4089 49.9174 39.25 47 39.25ZM30.5 36.5H41.5V39.25H30.5V36.5ZM36 50.25L41.5 55.75L36 61.25L30.5 55.75L36 50.25ZM52.5 80.5H19.5V69.5H25V75H27.75V69.5H52.5V80.5ZM52.5 66.75H19.5V50.25C19.5 48.7913 20.0795 47.3924 21.1109 46.3609C22.1424 45.3295 23.5413 44.75 25 44.75H47C48.4587 44.75 49.8576 45.3295 50.8891 46.3609C51.9205 47.3924 52.5 48.7913 52.5 50.25V66.75Z" fill="#F95C19"/>
</svg>
